%TF.GenerationSoftware,KiCad,Pcbnew,(6.0.10)*%
%TF.CreationDate,2023-01-29T23:50:32+02:00*%
%TF.ProjectId,Bomb,426f6d62-2e6b-4696-9361-645f70636258,rev?*%
%TF.SameCoordinates,Original*%
%TF.FileFunction,Legend,Bot*%
%TF.FilePolarity,Positive*%
%FSLAX46Y46*%
G04 Gerber Fmt 4.6, Leading zero omitted, Abs format (unit mm)*
G04 Created by KiCad (PCBNEW (6.0.10)) date 2023-01-29 23:50:32*
%MOMM*%
%LPD*%
G01*
G04 APERTURE LIST*
G04 Aperture macros list*
%AMRoundRect*
0 Rectangle with rounded corners*
0 $1 Rounding radius*
0 $2 $3 $4 $5 $6 $7 $8 $9 X,Y pos of 4 corners*
0 Add a 4 corners polygon primitive as box body*
4,1,4,$2,$3,$4,$5,$6,$7,$8,$9,$2,$3,0*
0 Add four circle primitives for the rounded corners*
1,1,$1+$1,$2,$3*
1,1,$1+$1,$4,$5*
1,1,$1+$1,$6,$7*
1,1,$1+$1,$8,$9*
0 Add four rect primitives between the rounded corners*
20,1,$1+$1,$2,$3,$4,$5,0*
20,1,$1+$1,$4,$5,$6,$7,0*
20,1,$1+$1,$6,$7,$8,$9,0*
20,1,$1+$1,$8,$9,$2,$3,0*%
G04 Aperture macros list end*
%ADD10C,0.150000*%
%ADD11C,0.120000*%
%ADD12RoundRect,0.155000X-0.212500X-0.155000X0.212500X-0.155000X0.212500X0.155000X-0.212500X0.155000X0*%
%ADD13R,1.700000X1.700000*%
%ADD14O,1.700000X1.700000*%
%ADD15R,1.600000X1.600000*%
%ADD16O,1.600000X1.600000*%
G04 APERTURE END LIST*
D10*
%TO.C,C1*%
X129376666Y-58972142D02*
X129424285Y-59019761D01*
X129567142Y-59067380D01*
X129662380Y-59067380D01*
X129805238Y-59019761D01*
X129900476Y-58924523D01*
X129948095Y-58829285D01*
X129995714Y-58638809D01*
X129995714Y-58495952D01*
X129948095Y-58305476D01*
X129900476Y-58210238D01*
X129805238Y-58115000D01*
X129662380Y-58067380D01*
X129567142Y-58067380D01*
X129424285Y-58115000D01*
X129376666Y-58162619D01*
X128424285Y-59067380D02*
X128995714Y-59067380D01*
X128710000Y-59067380D02*
X128710000Y-58067380D01*
X128805238Y-58210238D01*
X128900476Y-58305476D01*
X128995714Y-58353095D01*
D11*
X129094165Y-57815000D02*
X129325835Y-57815000D01*
X129094165Y-57095000D02*
X129325835Y-57095000D01*
%TD*%
%LPC*%
D12*
%TO.C,C1*%
X128642500Y-57455000D03*
X129777500Y-57455000D03*
%TD*%
D13*
%TO.C,J1*%
X117780000Y-49200000D03*
D14*
X120320000Y-49200000D03*
X122860000Y-49200000D03*
X125400000Y-49200000D03*
X127940000Y-49200000D03*
X130480000Y-49200000D03*
X133020000Y-49200000D03*
X135560000Y-49200000D03*
X138100000Y-49200000D03*
X140640000Y-49200000D03*
%TD*%
D15*
%TO.C,U1*%
X125439261Y-60686243D03*
D16*
X127979261Y-60686243D03*
X130519261Y-60686243D03*
X133059261Y-60686243D03*
X133059261Y-53066243D03*
X130519261Y-53066243D03*
X127979261Y-53066243D03*
X125439261Y-53066243D03*
%TD*%
D13*
%TO.C,J2*%
X117780000Y-53707500D03*
D14*
X117780000Y-56247500D03*
X117780000Y-58787500D03*
X117780000Y-61327500D03*
%TD*%
D13*
%TO.C,J4*%
X135560000Y-65710000D03*
D14*
X133020000Y-65710000D03*
X130480000Y-65710000D03*
X127940000Y-65710000D03*
X125400000Y-65710000D03*
%TD*%
D13*
%TO.C,J3*%
X138735000Y-55550000D03*
D14*
X138735000Y-58090000D03*
%TD*%
M02*
