M48
; DRILL file {KiCad (6.0.10)} date Mon Jan 30 00:47:38 2023
; FORMAT={-:-/ absolute / inch / decimal}
; #@! TF.CreationDate,2023-01-30T00:47:38+02:00
; #@! TF.GenerationSoftware,Kicad,Pcbnew,(6.0.10)
; #@! TF.FileFunction,Plated,1,2,PTH
FMAT,2
INCH
; #@! TA.AperFunction,Plated,PTH,ComponentDrill
T1C0.0315
; #@! TA.AperFunction,Plated,PTH,ComponentDrill
T2C0.0394
%
G90
G05
T1
X4.9386Y-2.0892
X4.9386Y-2.3892
X5.0386Y-2.0892
X5.0386Y-2.3892
X5.1386Y-2.0892
X5.1386Y-2.3892
X5.2386Y-2.0892
X5.2386Y-2.3892
T2
X4.637Y-1.937
X4.637Y-2.1145
X4.637Y-2.2145
X4.637Y-2.3145
X4.637Y-2.4145
X4.737Y-1.937
X4.837Y-1.937
X4.937Y-1.937
X4.937Y-2.587
X5.037Y-1.937
X5.037Y-2.587
X5.137Y-1.937
X5.137Y-2.587
X5.237Y-1.937
X5.237Y-2.587
X5.337Y-1.937
X5.337Y-2.587
X5.437Y-1.937
X5.462Y-2.187
X5.462Y-2.287
X5.537Y-1.937
T0
M30
