M48
; DRILL file {KiCad (6.0.10)} date Sun Jan 29 23:50:35 2023
; FORMAT={-:-/ absolute / metric / decimal}
; #@! TF.CreationDate,2023-01-29T23:50:35+02:00
; #@! TF.GenerationSoftware,Kicad,Pcbnew,(6.0.10)
; #@! TF.FileFunction,Plated,1,2,PTH
FMAT,2
METRIC
; #@! TA.AperFunction,Plated,PTH,ComponentDrill
T1C0.800
; #@! TA.AperFunction,Plated,PTH,ComponentDrill
T2C1.000
%
G90
G05
T1
X125.439Y-53.066
X125.439Y-60.686
X127.979Y-53.066
X127.979Y-60.686
X130.519Y-53.066
X130.519Y-60.686
X133.059Y-53.066
X133.059Y-60.686
T2
X117.78Y-49.2
X117.78Y-53.707
X117.78Y-56.247
X117.78Y-58.787
X117.78Y-61.328
X120.32Y-49.2
X122.86Y-49.2
X125.4Y-49.2
X125.4Y-65.71
X127.94Y-49.2
X127.94Y-65.71
X130.48Y-49.2
X130.48Y-65.71
X133.02Y-49.2
X133.02Y-65.71
X135.56Y-49.2
X135.56Y-65.71
X138.1Y-49.2
X138.735Y-55.55
X138.735Y-58.09
X140.64Y-49.2
T0
M30
