%TF.GenerationSoftware,KiCad,Pcbnew,(6.0.10)*%
%TF.CreationDate,2023-01-29T23:50:32+02:00*%
%TF.ProjectId,Bomb,426f6d62-2e6b-4696-9361-645f70636258,rev?*%
%TF.SameCoordinates,Original*%
%TF.FileFunction,Copper,L1,Top*%
%TF.FilePolarity,Positive*%
%FSLAX46Y46*%
G04 Gerber Fmt 4.6, Leading zero omitted, Abs format (unit mm)*
G04 Created by KiCad (PCBNEW (6.0.10)) date 2023-01-29 23:50:32*
%MOMM*%
%LPD*%
G01*
G04 APERTURE LIST*
%TA.AperFunction,ComponentPad*%
%ADD10R,1.700000X1.700000*%
%TD*%
%TA.AperFunction,ComponentPad*%
%ADD11O,1.700000X1.700000*%
%TD*%
%TA.AperFunction,ComponentPad*%
%ADD12R,1.600000X1.600000*%
%TD*%
%TA.AperFunction,ComponentPad*%
%ADD13O,1.600000X1.600000*%
%TD*%
%TA.AperFunction,Conductor*%
%ADD14C,0.250000*%
%TD*%
G04 APERTURE END LIST*
D10*
%TO.P,J1,1,Pin_1*%
%TO.N,/SCL{slash}A5*%
X117780000Y-49200000D03*
D11*
%TO.P,J1,2,Pin_2*%
%TO.N,/SDA{slash}A4*%
X120320000Y-49200000D03*
%TO.P,J1,3,Pin_3*%
%TO.N,/AREF*%
X122860000Y-49200000D03*
%TO.P,J1,4,Pin_4*%
%TO.N,GND*%
X125400000Y-49200000D03*
%TO.P,J1,5,Pin_5*%
%TO.N,/13*%
X127940000Y-49200000D03*
%TO.P,J1,6,Pin_6*%
%TO.N,/12*%
X130480000Y-49200000D03*
%TO.P,J1,7,Pin_7*%
%TO.N,/\u002A11*%
X133020000Y-49200000D03*
%TO.P,J1,8,Pin_8*%
%TO.N,/\u002A10*%
X135560000Y-49200000D03*
%TO.P,J1,9,Pin_9*%
%TO.N,/\u002A9*%
X138100000Y-49200000D03*
%TO.P,J1,10,Pin_10*%
%TO.N,/8*%
X140640000Y-49200000D03*
%TD*%
D12*
%TO.P,U1,1,~{RESET}/PB5*%
%TO.N,/\u002A10*%
X125439261Y-60686243D03*
D13*
%TO.P,U1,2,XTAL1/PB3*%
%TO.N,/\u002A9*%
X127979261Y-60686243D03*
%TO.P,U1,3,XTAL2/PB4*%
%TO.N,/8*%
X130519261Y-60686243D03*
%TO.P,U1,4,GND*%
%TO.N,GND*%
X133059261Y-60686243D03*
%TO.P,U1,5,AREF/PB0*%
%TO.N,/\u002A11*%
X133059261Y-53066243D03*
%TO.P,U1,6,PB1*%
%TO.N,/12*%
X130519261Y-53066243D03*
%TO.P,U1,7,PB2*%
%TO.N,/13*%
X127979261Y-53066243D03*
%TO.P,U1,8,VCC*%
%TO.N,+5V*%
X125439261Y-53066243D03*
%TD*%
D10*
%TO.P,J2,1,Pin_1*%
%TO.N,GND*%
X117780000Y-53707500D03*
D11*
%TO.P,J2,2,Pin_2*%
%TO.N,+5V*%
X117780000Y-56247500D03*
%TO.P,J2,3,Pin_3*%
%TO.N,/SCL{slash}A5*%
X117780000Y-58787500D03*
%TO.P,J2,4,Pin_4*%
%TO.N,/SDA{slash}A4*%
X117780000Y-61327500D03*
%TD*%
D10*
%TO.P,J4,1,Pin_1*%
%TO.N,GND*%
X135560000Y-65710000D03*
D11*
%TO.P,J4,2,Pin_2*%
%TO.N,/\u002A9*%
X133020000Y-65710000D03*
%TO.P,J4,3,Pin_3*%
%TO.N,/\u002A11*%
X130480000Y-65710000D03*
%TO.P,J4,4,Pin_4*%
%TO.N,/12*%
X127940000Y-65710000D03*
%TO.P,J4,5,Pin_5*%
%TO.N,/13*%
X125400000Y-65710000D03*
%TD*%
D10*
%TO.P,J3,1,Pin_1*%
%TO.N,+5V*%
X138735000Y-55550000D03*
D11*
%TO.P,J3,2,Pin_2*%
%TO.N,GND*%
X138735000Y-58090000D03*
%TD*%
D14*
%TO.N,/SCL{slash}A5*%
X115875000Y-56882500D02*
X117780000Y-58787500D01*
X115875000Y-51105000D02*
X115875000Y-56882500D01*
X117780000Y-49200000D02*
X115875000Y-51105000D01*
%TO.N,/13*%
X125400000Y-51740000D02*
X124130000Y-51740000D01*
X124130000Y-51740000D02*
X121590000Y-54280000D01*
X127940000Y-49200000D02*
X125400000Y-51740000D01*
%TO.N,/SDA{slash}A4*%
X120320000Y-49200000D02*
X120320000Y-58787500D01*
X120320000Y-58787500D02*
X117780000Y-61327500D01*
%TO.N,/13*%
X121590000Y-65710000D02*
X125400000Y-65710000D01*
X127979261Y-49239261D02*
X127940000Y-49200000D01*
X121590000Y-54280000D02*
X121590000Y-65710000D01*
X127979261Y-53066243D02*
X127979261Y-49239261D01*
%TO.N,/12*%
X130519261Y-53066243D02*
X128035504Y-55550000D01*
X122860000Y-64440000D02*
X126670000Y-64440000D01*
X126670000Y-64440000D02*
X127940000Y-65710000D01*
X122860000Y-55550000D02*
X122860000Y-64440000D01*
X130519261Y-53066243D02*
X130519261Y-49239261D01*
X128035504Y-55550000D02*
X122860000Y-55550000D01*
X130519261Y-49239261D02*
X130480000Y-49200000D01*
%TO.N,/8*%
X140640000Y-49200000D02*
X140640000Y-50565504D01*
X140640000Y-50565504D02*
X130519261Y-60686243D01*
%TO.N,/\u002A11*%
X127940000Y-63170000D02*
X130480000Y-65710000D01*
X133059261Y-49239261D02*
X133020000Y-49200000D01*
X133059261Y-53066243D02*
X133059261Y-54240739D01*
X124130000Y-56820000D02*
X124130000Y-63170000D01*
X124130000Y-63170000D02*
X127940000Y-63170000D01*
X133059261Y-53066243D02*
X133059261Y-49239261D01*
X133059261Y-54240739D02*
X130480000Y-56820000D01*
X130480000Y-56820000D02*
X124130000Y-56820000D01*
%TO.N,/\u002A10*%
X135560000Y-53010000D02*
X130480000Y-58090000D01*
X125400000Y-58090000D02*
X125439261Y-58129261D01*
X125439261Y-58129261D02*
X125439261Y-60686243D01*
X130480000Y-58090000D02*
X125400000Y-58090000D01*
X135560000Y-49200000D02*
X135560000Y-53010000D01*
%TO.N,/\u002A9*%
X127979261Y-60686243D02*
X133003018Y-65710000D01*
X138100000Y-51740000D02*
X138098604Y-51740000D01*
X130928604Y-58910000D02*
X129755504Y-58910000D01*
X138100000Y-49200000D02*
X138100000Y-51740000D01*
X133003018Y-65710000D02*
X133020000Y-65710000D01*
X138098604Y-51740000D02*
X130928604Y-58910000D01*
X129755504Y-58910000D02*
X127979261Y-60686243D01*
%TD*%
M02*
