%TF.GenerationSoftware,KiCad,Pcbnew,(6.0.10)*%
%TF.CreationDate,2023-01-29T23:50:32+02:00*%
%TF.ProjectId,Bomb,426f6d62-2e6b-4696-9361-645f70636258,rev?*%
%TF.SameCoordinates,Original*%
%TF.FileFunction,Legend,Top*%
%TF.FilePolarity,Positive*%
%FSLAX46Y46*%
G04 Gerber Fmt 4.6, Leading zero omitted, Abs format (unit mm)*
G04 Created by KiCad (PCBNEW (6.0.10)) date 2023-01-29 23:50:32*
%MOMM*%
%LPD*%
G01*
G04 APERTURE LIST*
%ADD10C,0.150000*%
%ADD11C,0.120000*%
%ADD12R,1.700000X1.700000*%
%ADD13O,1.700000X1.700000*%
%ADD14R,1.600000X1.600000*%
%ADD15O,1.600000X1.600000*%
G04 APERTURE END LIST*
D10*
%TO.C,U1*%
X122561641Y-57638147D02*
X123371165Y-57638147D01*
X123466403Y-57590528D01*
X123514022Y-57542909D01*
X123561641Y-57447671D01*
X123561641Y-57257195D01*
X123514022Y-57161957D01*
X123466403Y-57114338D01*
X123371165Y-57066719D01*
X122561641Y-57066719D01*
X123561641Y-56066719D02*
X123561641Y-56638147D01*
X123561641Y-56352433D02*
X122561641Y-56352433D01*
X122704499Y-56447671D01*
X122799737Y-56542909D01*
X122847356Y-56638147D01*
%TO.C,J2*%
X117446666Y-50829880D02*
X117446666Y-51544166D01*
X117399047Y-51687023D01*
X117303809Y-51782261D01*
X117160952Y-51829880D01*
X117065714Y-51829880D01*
X117875238Y-50925119D02*
X117922857Y-50877500D01*
X118018095Y-50829880D01*
X118256190Y-50829880D01*
X118351428Y-50877500D01*
X118399047Y-50925119D01*
X118446666Y-51020357D01*
X118446666Y-51115595D01*
X118399047Y-51258452D01*
X117827619Y-51829880D01*
X118446666Y-51829880D01*
%TO.C,J4*%
X137342380Y-66043333D02*
X138056666Y-66043333D01*
X138199523Y-66090952D01*
X138294761Y-66186190D01*
X138342380Y-66329047D01*
X138342380Y-66424285D01*
X137675714Y-65138571D02*
X138342380Y-65138571D01*
X137294761Y-65376666D02*
X138009047Y-65614761D01*
X138009047Y-64995714D01*
%TO.C,J3*%
X138401666Y-52672380D02*
X138401666Y-53386666D01*
X138354047Y-53529523D01*
X138258809Y-53624761D01*
X138115952Y-53672380D01*
X138020714Y-53672380D01*
X138782619Y-52672380D02*
X139401666Y-52672380D01*
X139068333Y-53053333D01*
X139211190Y-53053333D01*
X139306428Y-53100952D01*
X139354047Y-53148571D01*
X139401666Y-53243809D01*
X139401666Y-53481904D01*
X139354047Y-53577142D01*
X139306428Y-53624761D01*
X139211190Y-53672380D01*
X138925476Y-53672380D01*
X138830238Y-53624761D01*
X138782619Y-53577142D01*
D11*
%TO.C,J1*%
X141970000Y-50530000D02*
X141970000Y-47870000D01*
X119050000Y-50530000D02*
X141970000Y-50530000D01*
X116450000Y-47870000D02*
X117780000Y-47870000D01*
X116450000Y-49200000D02*
X116450000Y-47870000D01*
X119050000Y-47870000D02*
X141970000Y-47870000D01*
X119050000Y-50530000D02*
X119050000Y-47870000D01*
%TO.C,U1*%
X124109261Y-54226243D02*
X124109261Y-55876243D01*
X134389261Y-54226243D02*
X124109261Y-54226243D01*
X124109261Y-59526243D02*
X134389261Y-59526243D01*
X124109261Y-57876243D02*
X124109261Y-59526243D01*
X134389261Y-59526243D02*
X134389261Y-54226243D01*
X124109261Y-57876243D02*
G75*
G03*
X124109261Y-55876243I0J1000000D01*
G01*
%TO.C,J2*%
X116450000Y-54977500D02*
X116450000Y-62657500D01*
X116450000Y-62657500D02*
X119110000Y-62657500D01*
X119110000Y-54977500D02*
X119110000Y-62657500D01*
X116450000Y-52377500D02*
X117780000Y-52377500D01*
X116450000Y-53707500D02*
X116450000Y-52377500D01*
X116450000Y-54977500D02*
X119110000Y-54977500D01*
%TO.C,J4*%
X135560000Y-64380000D02*
X136890000Y-64380000D01*
X134290000Y-67040000D02*
X124070000Y-67040000D01*
X136890000Y-64380000D02*
X136890000Y-65710000D01*
X124070000Y-64380000D02*
X124070000Y-67040000D01*
X134290000Y-64380000D02*
X124070000Y-64380000D01*
X134290000Y-64380000D02*
X134290000Y-67040000D01*
%TO.C,J3*%
X137405000Y-55550000D02*
X137405000Y-54220000D01*
X140065000Y-56820000D02*
X140065000Y-59420000D01*
X137405000Y-59420000D02*
X140065000Y-59420000D01*
X137405000Y-56820000D02*
X140065000Y-56820000D01*
X137405000Y-56820000D02*
X137405000Y-59420000D01*
X137405000Y-54220000D02*
X138735000Y-54220000D01*
%TD*%
%LPC*%
D12*
%TO.C,J1*%
X117780000Y-49200000D03*
D13*
X120320000Y-49200000D03*
X122860000Y-49200000D03*
X125400000Y-49200000D03*
X127940000Y-49200000D03*
X130480000Y-49200000D03*
X133020000Y-49200000D03*
X135560000Y-49200000D03*
X138100000Y-49200000D03*
X140640000Y-49200000D03*
%TD*%
D14*
%TO.C,U1*%
X125439261Y-60686243D03*
D15*
X127979261Y-60686243D03*
X130519261Y-60686243D03*
X133059261Y-60686243D03*
X133059261Y-53066243D03*
X130519261Y-53066243D03*
X127979261Y-53066243D03*
X125439261Y-53066243D03*
%TD*%
D12*
%TO.C,J2*%
X117780000Y-53707500D03*
D13*
X117780000Y-56247500D03*
X117780000Y-58787500D03*
X117780000Y-61327500D03*
%TD*%
D12*
%TO.C,J4*%
X135560000Y-65710000D03*
D13*
X133020000Y-65710000D03*
X130480000Y-65710000D03*
X127940000Y-65710000D03*
X125400000Y-65710000D03*
%TD*%
D12*
%TO.C,J3*%
X138735000Y-55550000D03*
D13*
X138735000Y-58090000D03*
%TD*%
M02*
