%TF.GenerationSoftware,KiCad,Pcbnew,(6.0.10)*%
%TF.CreationDate,2023-01-30T00:45:51+02:00*%
%TF.ProjectId,LEDs Shield,4c454473-2053-4686-9965-6c642e6b6963,rev?*%
%TF.SameCoordinates,Original*%
%TF.FileFunction,Copper,L2,Bot*%
%TF.FilePolarity,Positive*%
%FSLAX46Y46*%
G04 Gerber Fmt 4.6, Leading zero omitted, Abs format (unit mm)*
G04 Created by KiCad (PCBNEW (6.0.10)) date 2023-01-30 00:45:51*
%MOMM*%
%LPD*%
G01*
G04 APERTURE LIST*
G04 Aperture macros list*
%AMRoundRect*
0 Rectangle with rounded corners*
0 $1 Rounding radius*
0 $2 $3 $4 $5 $6 $7 $8 $9 X,Y pos of 4 corners*
0 Add a 4 corners polygon primitive as box body*
4,1,4,$2,$3,$4,$5,$6,$7,$8,$9,$2,$3,0*
0 Add four circle primitives for the rounded corners*
1,1,$1+$1,$2,$3*
1,1,$1+$1,$4,$5*
1,1,$1+$1,$6,$7*
1,1,$1+$1,$8,$9*
0 Add four rect primitives between the rounded corners*
20,1,$1+$1,$2,$3,$4,$5,0*
20,1,$1+$1,$4,$5,$6,$7,0*
20,1,$1+$1,$6,$7,$8,$9,0*
20,1,$1+$1,$8,$9,$2,$3,0*%
G04 Aperture macros list end*
%TA.AperFunction,SMDPad,CuDef*%
%ADD10RoundRect,0.237500X-0.237500X0.250000X-0.237500X-0.250000X0.237500X-0.250000X0.237500X0.250000X0*%
%TD*%
%TA.AperFunction,ComponentPad*%
%ADD11R,1.800000X1.800000*%
%TD*%
%TA.AperFunction,ComponentPad*%
%ADD12C,1.800000*%
%TD*%
%TA.AperFunction,ComponentPad*%
%ADD13R,1.700000X1.700000*%
%TD*%
%TA.AperFunction,ComponentPad*%
%ADD14O,1.700000X1.700000*%
%TD*%
%TA.AperFunction,Conductor*%
%ADD15C,0.600000*%
%TD*%
G04 APERTURE END LIST*
D10*
%TO.P,R4,2*%
%TO.N,Net-(J3-Pad4)*%
X160325000Y-94562500D03*
%TO.P,R4,1*%
%TO.N,Net-(D4-Pad2)*%
X160325000Y-92737500D03*
%TD*%
%TO.P,R2,2*%
%TO.N,Net-(J3-Pad2)*%
X153975000Y-94562500D03*
%TO.P,R2,1*%
%TO.N,Net-(D2-Pad2)*%
X153975000Y-92737500D03*
%TD*%
%TO.P,R5,1*%
%TO.N,GND*%
X163500000Y-87022500D03*
%TO.P,R5,2*%
%TO.N,Net-(D5-Pad1)*%
X163500000Y-88847500D03*
%TD*%
%TO.P,R3,1*%
%TO.N,GND*%
X156515000Y-87022500D03*
%TO.P,R3,2*%
%TO.N,Net-(D3-Pad1)*%
X156515000Y-88847500D03*
%TD*%
%TO.P,R1,1*%
%TO.N,GND*%
X150165000Y-87022500D03*
%TO.P,R1,2*%
%TO.N,Net-(D1-Pad1)*%
X150165000Y-88847500D03*
%TD*%
D11*
%TO.P,D5,1,K*%
%TO.N,Net-(D5-Pad1)*%
X162865000Y-91105000D03*
D12*
%TO.P,D5,2,A*%
%TO.N,Net-(J3-Pad5)*%
X162865000Y-93645000D03*
%TD*%
%TO.P,D4,2,A*%
%TO.N,Net-(D4-Pad2)*%
X159880000Y-88565000D03*
D11*
%TO.P,D4,1,K*%
%TO.N,GND*%
X159880000Y-86025000D03*
%TD*%
%TO.P,D3,1,K*%
%TO.N,Net-(D3-Pad1)*%
X157150000Y-91105000D03*
D12*
%TO.P,D3,2,A*%
%TO.N,Net-(J3-Pad3)*%
X157150000Y-93645000D03*
%TD*%
%TO.P,D2,2,A*%
%TO.N,Net-(D2-Pad2)*%
X153340000Y-88565000D03*
D11*
%TO.P,D2,1,K*%
%TO.N,GND*%
X153340000Y-86025000D03*
%TD*%
%TO.P,D1,1,K*%
%TO.N,Net-(D1-Pad1)*%
X150800000Y-91110000D03*
D12*
%TO.P,D1,2,A*%
%TO.N,Net-(J3-Pad1)*%
X150800000Y-93650000D03*
%TD*%
D13*
%TO.P,J3,1,Pin_1*%
%TO.N,Net-(J3-Pad1)*%
X150800000Y-97460000D03*
D14*
%TO.P,J3,2,Pin_2*%
%TO.N,Net-(J3-Pad2)*%
X153340000Y-97460000D03*
%TO.P,J3,3,Pin_3*%
%TO.N,Net-(J3-Pad3)*%
X155880000Y-97460000D03*
%TO.P,J3,4,Pin_4*%
%TO.N,Net-(J3-Pad4)*%
X158420000Y-97460000D03*
%TO.P,J3,5,Pin_5*%
%TO.N,Net-(J3-Pad5)*%
X160960000Y-97460000D03*
%TO.P,J3,6,Pin_6*%
%TO.N,GND*%
X163500000Y-97460000D03*
%TD*%
D15*
%TO.N,Net-(D5-Pad1)*%
X163500000Y-91105000D02*
X163500000Y-88847500D01*
%TO.N,Net-(J3-Pad5)*%
X160960000Y-96185000D02*
X163500000Y-93645000D01*
X160960000Y-97460000D02*
X160960000Y-96185000D01*
%TO.N,Net-(D4-Pad2)*%
X160325000Y-92737500D02*
X160325000Y-89010000D01*
X160325000Y-89010000D02*
X159880000Y-88565000D01*
%TO.N,Net-(J3-Pad4)*%
X158420000Y-96467500D02*
X160325000Y-94562500D01*
X158420000Y-97460000D02*
X158420000Y-96467500D01*
%TO.N,Net-(D3-Pad1)*%
X157150000Y-89482500D02*
X156515000Y-88847500D01*
X157150000Y-91105000D02*
X157150000Y-89482500D01*
%TO.N,Net-(J3-Pad3)*%
X155880000Y-94915000D02*
X157150000Y-93645000D01*
X155880000Y-97460000D02*
X155880000Y-94915000D01*
%TO.N,Net-(D2-Pad2)*%
X153975000Y-92737500D02*
X153975000Y-89200000D01*
X153975000Y-89200000D02*
X153340000Y-88565000D01*
%TO.N,Net-(J3-Pad2)*%
X153340000Y-95197500D02*
X153975000Y-94562500D01*
X153340000Y-97460000D02*
X153340000Y-95197500D01*
%TO.N,GND*%
X165405000Y-88927500D02*
X165405000Y-95555000D01*
X163500000Y-87022500D02*
X165405000Y-88927500D01*
X165405000Y-95555000D02*
X163500000Y-97460000D01*
X162502500Y-86025000D02*
X163500000Y-87022500D01*
X159880000Y-86025000D02*
X162502500Y-86025000D01*
X158882500Y-87022500D02*
X159880000Y-86025000D01*
X156515000Y-87022500D02*
X158882500Y-87022500D01*
X155517500Y-86025000D02*
X156515000Y-87022500D01*
X153340000Y-86025000D02*
X155517500Y-86025000D01*
X152342500Y-87022500D02*
X153340000Y-86025000D01*
X150165000Y-87022500D02*
X152342500Y-87022500D01*
%TO.N,Net-(D1-Pad1)*%
X150800000Y-91110000D02*
X150800000Y-89482500D01*
X150800000Y-89482500D02*
X150165000Y-88847500D01*
%TO.N,Net-(J3-Pad1)*%
X150800000Y-97460000D02*
X150800000Y-93650000D01*
%TD*%
M02*
