%TF.GenerationSoftware,KiCad,Pcbnew,(6.0.10)*%
%TF.CreationDate,2023-01-30T00:45:51+02:00*%
%TF.ProjectId,LEDs Shield,4c454473-2053-4686-9965-6c642e6b6963,rev?*%
%TF.SameCoordinates,Original*%
%TF.FileFunction,Legend,Top*%
%TF.FilePolarity,Positive*%
%FSLAX46Y46*%
G04 Gerber Fmt 4.6, Leading zero omitted, Abs format (unit mm)*
G04 Created by KiCad (PCBNEW (6.0.10)) date 2023-01-30 00:45:51*
%MOMM*%
%LPD*%
G01*
G04 APERTURE LIST*
%ADD10C,0.150000*%
%ADD11C,0.120000*%
%ADD12R,1.800000X1.800000*%
%ADD13C,1.800000*%
%ADD14R,1.700000X1.700000*%
%ADD15O,1.700000X1.700000*%
G04 APERTURE END LIST*
D10*
%TO.C,D5*%
X163317380Y-89399582D02*
X162317380Y-89399582D01*
X162317380Y-89161487D01*
X162365000Y-89018629D01*
X162460238Y-88923391D01*
X162555476Y-88875772D01*
X162745952Y-88828153D01*
X162888809Y-88828153D01*
X163079285Y-88875772D01*
X163174523Y-88923391D01*
X163269761Y-89018629D01*
X163317380Y-89161487D01*
X163317380Y-89399582D01*
X162317380Y-87923391D02*
X162317380Y-88399582D01*
X162793571Y-88447201D01*
X162745952Y-88399582D01*
X162698333Y-88304344D01*
X162698333Y-88066248D01*
X162745952Y-87971010D01*
X162793571Y-87923391D01*
X162888809Y-87875772D01*
X163126904Y-87875772D01*
X163222142Y-87923391D01*
X163269761Y-87971010D01*
X163317380Y-88066248D01*
X163317380Y-88304344D01*
X163269761Y-88399582D01*
X163222142Y-88447201D01*
%TO.C,D4*%
X160777380Y-91848095D02*
X159777380Y-91848095D01*
X159777380Y-91610000D01*
X159825000Y-91467142D01*
X159920238Y-91371904D01*
X160015476Y-91324285D01*
X160205952Y-91276666D01*
X160348809Y-91276666D01*
X160539285Y-91324285D01*
X160634523Y-91371904D01*
X160729761Y-91467142D01*
X160777380Y-91610000D01*
X160777380Y-91848095D01*
X160110714Y-90419523D02*
X160777380Y-90419523D01*
X159729761Y-90657619D02*
X160444047Y-90895714D01*
X160444047Y-90276666D01*
%TO.C,D3*%
X157602380Y-89773095D02*
X156602380Y-89773095D01*
X156602380Y-89535000D01*
X156650000Y-89392142D01*
X156745238Y-89296904D01*
X156840476Y-89249285D01*
X157030952Y-89201666D01*
X157173809Y-89201666D01*
X157364285Y-89249285D01*
X157459523Y-89296904D01*
X157554761Y-89392142D01*
X157602380Y-89535000D01*
X157602380Y-89773095D01*
X156602380Y-88868333D02*
X156602380Y-88249285D01*
X156983333Y-88582619D01*
X156983333Y-88439761D01*
X157030952Y-88344523D01*
X157078571Y-88296904D01*
X157173809Y-88249285D01*
X157411904Y-88249285D01*
X157507142Y-88296904D01*
X157554761Y-88344523D01*
X157602380Y-88439761D01*
X157602380Y-88725476D01*
X157554761Y-88820714D01*
X157507142Y-88868333D01*
%TO.C,D2*%
X154427380Y-91843095D02*
X153427380Y-91843095D01*
X153427380Y-91605000D01*
X153475000Y-91462142D01*
X153570238Y-91366904D01*
X153665476Y-91319285D01*
X153855952Y-91271666D01*
X153998809Y-91271666D01*
X154189285Y-91319285D01*
X154284523Y-91366904D01*
X154379761Y-91462142D01*
X154427380Y-91605000D01*
X154427380Y-91843095D01*
X153522619Y-90890714D02*
X153475000Y-90843095D01*
X153427380Y-90747857D01*
X153427380Y-90509761D01*
X153475000Y-90414523D01*
X153522619Y-90366904D01*
X153617857Y-90319285D01*
X153713095Y-90319285D01*
X153855952Y-90366904D01*
X154427380Y-90938333D01*
X154427380Y-90319285D01*
%TO.C,D1*%
X149982380Y-89308095D02*
X148982380Y-89308095D01*
X148982380Y-89070000D01*
X149030000Y-88927142D01*
X149125238Y-88831904D01*
X149220476Y-88784285D01*
X149410952Y-88736666D01*
X149553809Y-88736666D01*
X149744285Y-88784285D01*
X149839523Y-88831904D01*
X149934761Y-88927142D01*
X149982380Y-89070000D01*
X149982380Y-89308095D01*
X149982380Y-87784285D02*
X149982380Y-88355714D01*
X149982380Y-88070000D02*
X148982380Y-88070000D01*
X149125238Y-88165238D01*
X149220476Y-88260476D01*
X149268095Y-88355714D01*
D11*
%TO.C,D5*%
X164101000Y-90815000D02*
X163945000Y-90815000D01*
X161785000Y-90815000D02*
X161629000Y-90815000D01*
X163944837Y-93416130D02*
G75*
G03*
X163945000Y-91334039I-1079837J1041130D01*
G01*
X161629484Y-90815000D02*
G75*
G03*
X161786392Y-94047335I1235516J-1560000D01*
G01*
X161785000Y-91334039D02*
G75*
G03*
X161785163Y-93416130I1080000J-1040961D01*
G01*
X163943608Y-94047335D02*
G75*
G03*
X164100516Y-90815000I-1078608J1672335D01*
G01*
%TO.C,D4*%
X160958608Y-88967335D02*
G75*
G03*
X161115516Y-85735000I-1078608J1672335D01*
G01*
X158800000Y-86254039D02*
G75*
G03*
X158800163Y-88336130I1080000J-1040961D01*
G01*
X158644484Y-85735000D02*
G75*
G03*
X158801392Y-88967335I1235516J-1560000D01*
G01*
X160959837Y-88336130D02*
G75*
G03*
X160960000Y-86254039I-1079837J1041130D01*
G01*
X158800000Y-85735000D02*
X158644000Y-85735000D01*
X161116000Y-85735000D02*
X160960000Y-85735000D01*
%TO.C,D3*%
X158386000Y-90815000D02*
X158230000Y-90815000D01*
X156070000Y-90815000D02*
X155914000Y-90815000D01*
X158229837Y-93416130D02*
G75*
G03*
X158230000Y-91334039I-1079837J1041130D01*
G01*
X155914484Y-90815000D02*
G75*
G03*
X156071392Y-94047335I1235516J-1560000D01*
G01*
X156070000Y-91334039D02*
G75*
G03*
X156070163Y-93416130I1080000J-1040961D01*
G01*
X158228608Y-94047335D02*
G75*
G03*
X158385516Y-90815000I-1078608J1672335D01*
G01*
%TO.C,D2*%
X154418608Y-88967335D02*
G75*
G03*
X154575516Y-85735000I-1078608J1672335D01*
G01*
X152260000Y-86254039D02*
G75*
G03*
X152260163Y-88336130I1080000J-1040961D01*
G01*
X152104484Y-85735000D02*
G75*
G03*
X152261392Y-88967335I1235516J-1560000D01*
G01*
X154419837Y-88336130D02*
G75*
G03*
X154420000Y-86254039I-1079837J1041130D01*
G01*
X152260000Y-85735000D02*
X152104000Y-85735000D01*
X154576000Y-85735000D02*
X154420000Y-85735000D01*
%TO.C,D1*%
X152036000Y-90820000D02*
X151880000Y-90820000D01*
X149720000Y-90820000D02*
X149564000Y-90820000D01*
X151879837Y-93421130D02*
G75*
G03*
X151880000Y-91339039I-1079837J1041130D01*
G01*
X149564484Y-90820000D02*
G75*
G03*
X149721392Y-94052335I1235516J-1560000D01*
G01*
X149720000Y-91339039D02*
G75*
G03*
X149720163Y-93421130I1080000J-1040961D01*
G01*
X151878608Y-94052335D02*
G75*
G03*
X152035516Y-90820000I-1078608J1672335D01*
G01*
%TO.C,J3*%
X152070000Y-96130000D02*
X164830000Y-96130000D01*
X149470000Y-97460000D02*
X149470000Y-96130000D01*
X152070000Y-98790000D02*
X152070000Y-96130000D01*
X152070000Y-98790000D02*
X164830000Y-98790000D01*
X164830000Y-98790000D02*
X164830000Y-96130000D01*
X149470000Y-96130000D02*
X150800000Y-96130000D01*
%TD*%
%LPC*%
D12*
%TO.C,D5*%
X162865000Y-91105000D03*
D13*
X162865000Y-93645000D03*
%TD*%
%TO.C,D4*%
X159880000Y-88565000D03*
D12*
X159880000Y-86025000D03*
%TD*%
%TO.C,D3*%
X157150000Y-91105000D03*
D13*
X157150000Y-93645000D03*
%TD*%
%TO.C,D2*%
X153340000Y-88565000D03*
D12*
X153340000Y-86025000D03*
%TD*%
%TO.C,D1*%
X150800000Y-91110000D03*
D13*
X150800000Y-93650000D03*
%TD*%
D14*
%TO.C,J3*%
X150800000Y-97460000D03*
D15*
X153340000Y-97460000D03*
X155880000Y-97460000D03*
X158420000Y-97460000D03*
X160960000Y-97460000D03*
X163500000Y-97460000D03*
%TD*%
M02*
