%TF.GenerationSoftware,KiCad,Pcbnew,(6.0.10)*%
%TF.CreationDate,2023-01-30T00:45:56+02:00*%
%TF.ProjectId,LEDs Shield,4c454473-2053-4686-9965-6c642e6b6963,rev?*%
%TF.SameCoordinates,Original*%
%TF.FileFunction,Drillmap*%
%TF.FilePolarity,Positive*%
%FSLAX45Y45*%
G04 Gerber Fmt 4.5, Leading zero omitted, Abs format (unit mm)*
G04 Created by KiCad (PCBNEW (6.0.10)) date 2023-01-30 00:45:56*
%MOMM*%
%LPD*%
G01*
G04 APERTURE LIST*
%ADD10C,0.150000*%
%ADD11C,0.200000*%
%ADD12C,0.090000*%
%ADD13C,0.100000*%
G04 APERTURE END LIST*
D10*
X16667500Y-8412500D02*
X16667500Y-10000000D01*
X14826000Y-10000000D02*
X14826000Y-8412500D01*
X16667500Y-10000000D02*
X14826000Y-10000000D01*
X14826000Y-8412500D02*
X16667500Y-8412500D01*
D11*
D12*
X15035000Y-9066000D02*
X15125000Y-9156000D01*
X15125000Y-9066000D02*
X15035000Y-9156000D01*
X15035000Y-9320000D02*
X15125000Y-9410000D01*
X15125000Y-9320000D02*
X15035000Y-9410000D01*
X15289000Y-8557500D02*
X15379000Y-8647500D01*
X15379000Y-8557500D02*
X15289000Y-8647500D01*
X15289000Y-8811500D02*
X15379000Y-8901500D01*
X15379000Y-8811500D02*
X15289000Y-8901500D01*
X15670000Y-9065500D02*
X15760000Y-9155500D01*
X15760000Y-9065500D02*
X15670000Y-9155500D01*
X15670000Y-9319500D02*
X15760000Y-9409500D01*
X15760000Y-9319500D02*
X15670000Y-9409500D01*
X15943000Y-8557500D02*
X16033000Y-8647500D01*
X16033000Y-8557500D02*
X15943000Y-8647500D01*
X15943000Y-8811500D02*
X16033000Y-8901500D01*
X16033000Y-8811500D02*
X15943000Y-8901500D01*
X16241500Y-9065500D02*
X16331500Y-9155500D01*
X16331500Y-9065500D02*
X16241500Y-9155500D01*
X16241500Y-9319500D02*
X16331500Y-9409500D01*
X16331500Y-9319500D02*
X16241500Y-9409500D01*
D13*
X15130000Y-9746000D02*
G75*
G03*
X15130000Y-9746000I-50000J0D01*
G01*
X15384000Y-9746000D02*
G75*
G03*
X15384000Y-9746000I-50000J0D01*
G01*
X15638000Y-9746000D02*
G75*
G03*
X15638000Y-9746000I-50000J0D01*
G01*
X15892000Y-9746000D02*
G75*
G03*
X15892000Y-9746000I-50000J0D01*
G01*
X16146000Y-9746000D02*
G75*
G03*
X16146000Y-9746000I-50000J0D01*
G01*
X16400000Y-9746000D02*
G75*
G03*
X16400000Y-9746000I-50000J0D01*
G01*
D11*
X15076119Y-10317976D02*
X15076119Y-10117976D01*
X15123738Y-10117976D01*
X15152309Y-10127500D01*
X15171357Y-10146548D01*
X15180881Y-10165595D01*
X15190405Y-10203690D01*
X15190405Y-10232262D01*
X15180881Y-10270357D01*
X15171357Y-10289405D01*
X15152309Y-10308452D01*
X15123738Y-10317976D01*
X15076119Y-10317976D01*
X15276119Y-10317976D02*
X15276119Y-10184643D01*
X15276119Y-10222738D02*
X15285643Y-10203690D01*
X15295167Y-10194167D01*
X15314214Y-10184643D01*
X15333262Y-10184643D01*
X15399928Y-10317976D02*
X15399928Y-10184643D01*
X15399928Y-10117976D02*
X15390405Y-10127500D01*
X15399928Y-10137024D01*
X15409452Y-10127500D01*
X15399928Y-10117976D01*
X15399928Y-10137024D01*
X15523738Y-10317976D02*
X15504690Y-10308452D01*
X15495167Y-10289405D01*
X15495167Y-10117976D01*
X15628500Y-10317976D02*
X15609452Y-10308452D01*
X15599928Y-10289405D01*
X15599928Y-10117976D01*
X15857071Y-10317976D02*
X15857071Y-10117976D01*
X15923738Y-10260833D01*
X15990405Y-10117976D01*
X15990405Y-10317976D01*
X16171357Y-10317976D02*
X16171357Y-10213214D01*
X16161833Y-10194167D01*
X16142786Y-10184643D01*
X16104690Y-10184643D01*
X16085643Y-10194167D01*
X16171357Y-10308452D02*
X16152309Y-10317976D01*
X16104690Y-10317976D01*
X16085643Y-10308452D01*
X16076119Y-10289405D01*
X16076119Y-10270357D01*
X16085643Y-10251310D01*
X16104690Y-10241786D01*
X16152309Y-10241786D01*
X16171357Y-10232262D01*
X16266595Y-10184643D02*
X16266595Y-10384643D01*
X16266595Y-10194167D02*
X16285643Y-10184643D01*
X16323738Y-10184643D01*
X16342786Y-10194167D01*
X16352309Y-10203690D01*
X16361833Y-10222738D01*
X16361833Y-10279881D01*
X16352309Y-10298929D01*
X16342786Y-10308452D01*
X16323738Y-10317976D01*
X16285643Y-10317976D01*
X16266595Y-10308452D01*
X16447548Y-10298929D02*
X16457071Y-10308452D01*
X16447548Y-10317976D01*
X16438024Y-10308452D01*
X16447548Y-10298929D01*
X16447548Y-10317976D01*
X16447548Y-10194167D02*
X16457071Y-10203690D01*
X16447548Y-10213214D01*
X16438024Y-10203690D01*
X16447548Y-10194167D01*
X16447548Y-10213214D01*
D12*
X14728500Y-10602500D02*
X14818500Y-10692500D01*
X14818500Y-10602500D02*
X14728500Y-10692500D01*
D11*
X15114214Y-10537976D02*
X15133262Y-10537976D01*
X15152309Y-10547500D01*
X15161833Y-10557024D01*
X15171357Y-10576071D01*
X15180881Y-10614167D01*
X15180881Y-10661786D01*
X15171357Y-10699881D01*
X15161833Y-10718929D01*
X15152309Y-10728452D01*
X15133262Y-10737976D01*
X15114214Y-10737976D01*
X15095167Y-10728452D01*
X15085643Y-10718929D01*
X15076119Y-10699881D01*
X15066595Y-10661786D01*
X15066595Y-10614167D01*
X15076119Y-10576071D01*
X15085643Y-10557024D01*
X15095167Y-10547500D01*
X15114214Y-10537976D01*
X15266595Y-10718929D02*
X15276119Y-10728452D01*
X15266595Y-10737976D01*
X15257071Y-10728452D01*
X15266595Y-10718929D01*
X15266595Y-10737976D01*
X15371357Y-10737976D02*
X15409452Y-10737976D01*
X15428500Y-10728452D01*
X15438024Y-10718929D01*
X15457071Y-10690357D01*
X15466595Y-10652262D01*
X15466595Y-10576071D01*
X15457071Y-10557024D01*
X15447548Y-10547500D01*
X15428500Y-10537976D01*
X15390405Y-10537976D01*
X15371357Y-10547500D01*
X15361833Y-10557024D01*
X15352309Y-10576071D01*
X15352309Y-10623690D01*
X15361833Y-10642738D01*
X15371357Y-10652262D01*
X15390405Y-10661786D01*
X15428500Y-10661786D01*
X15447548Y-10652262D01*
X15457071Y-10642738D01*
X15466595Y-10623690D01*
X15590405Y-10537976D02*
X15609452Y-10537976D01*
X15628500Y-10547500D01*
X15638024Y-10557024D01*
X15647548Y-10576071D01*
X15657071Y-10614167D01*
X15657071Y-10661786D01*
X15647548Y-10699881D01*
X15638024Y-10718929D01*
X15628500Y-10728452D01*
X15609452Y-10737976D01*
X15590405Y-10737976D01*
X15571357Y-10728452D01*
X15561833Y-10718929D01*
X15552309Y-10699881D01*
X15542786Y-10661786D01*
X15542786Y-10614167D01*
X15552309Y-10576071D01*
X15561833Y-10557024D01*
X15571357Y-10547500D01*
X15590405Y-10537976D01*
X15780881Y-10537976D02*
X15799928Y-10537976D01*
X15818976Y-10547500D01*
X15828500Y-10557024D01*
X15838024Y-10576071D01*
X15847548Y-10614167D01*
X15847548Y-10661786D01*
X15838024Y-10699881D01*
X15828500Y-10718929D01*
X15818976Y-10728452D01*
X15799928Y-10737976D01*
X15780881Y-10737976D01*
X15761833Y-10728452D01*
X15752309Y-10718929D01*
X15742786Y-10699881D01*
X15733262Y-10661786D01*
X15733262Y-10614167D01*
X15742786Y-10576071D01*
X15752309Y-10557024D01*
X15761833Y-10547500D01*
X15780881Y-10537976D01*
X15933262Y-10737976D02*
X15933262Y-10604643D01*
X15933262Y-10623690D02*
X15942786Y-10614167D01*
X15961833Y-10604643D01*
X15990405Y-10604643D01*
X16009452Y-10614167D01*
X16018976Y-10633214D01*
X16018976Y-10737976D01*
X16018976Y-10633214D02*
X16028500Y-10614167D01*
X16047548Y-10604643D01*
X16076119Y-10604643D01*
X16095167Y-10614167D01*
X16104690Y-10633214D01*
X16104690Y-10737976D01*
X16199928Y-10737976D02*
X16199928Y-10604643D01*
X16199928Y-10623690D02*
X16209452Y-10614167D01*
X16228500Y-10604643D01*
X16257071Y-10604643D01*
X16276119Y-10614167D01*
X16285643Y-10633214D01*
X16285643Y-10737976D01*
X16285643Y-10633214D02*
X16295167Y-10614167D01*
X16314214Y-10604643D01*
X16342786Y-10604643D01*
X16361833Y-10614167D01*
X16371357Y-10633214D01*
X16371357Y-10737976D01*
X16761833Y-10528452D02*
X16590405Y-10785595D01*
X17018976Y-10537976D02*
X17038024Y-10537976D01*
X17057071Y-10547500D01*
X17066595Y-10557024D01*
X17076119Y-10576071D01*
X17085643Y-10614167D01*
X17085643Y-10661786D01*
X17076119Y-10699881D01*
X17066595Y-10718929D01*
X17057071Y-10728452D01*
X17038024Y-10737976D01*
X17018976Y-10737976D01*
X16999929Y-10728452D01*
X16990405Y-10718929D01*
X16980881Y-10699881D01*
X16971357Y-10661786D01*
X16971357Y-10614167D01*
X16980881Y-10576071D01*
X16990405Y-10557024D01*
X16999929Y-10547500D01*
X17018976Y-10537976D01*
X17171357Y-10718929D02*
X17180881Y-10728452D01*
X17171357Y-10737976D01*
X17161833Y-10728452D01*
X17171357Y-10718929D01*
X17171357Y-10737976D01*
X17304690Y-10537976D02*
X17323738Y-10537976D01*
X17342786Y-10547500D01*
X17352310Y-10557024D01*
X17361833Y-10576071D01*
X17371357Y-10614167D01*
X17371357Y-10661786D01*
X17361833Y-10699881D01*
X17352310Y-10718929D01*
X17342786Y-10728452D01*
X17323738Y-10737976D01*
X17304690Y-10737976D01*
X17285643Y-10728452D01*
X17276119Y-10718929D01*
X17266595Y-10699881D01*
X17257071Y-10661786D01*
X17257071Y-10614167D01*
X17266595Y-10576071D01*
X17276119Y-10557024D01*
X17285643Y-10547500D01*
X17304690Y-10537976D01*
X17438024Y-10537976D02*
X17561833Y-10537976D01*
X17495167Y-10614167D01*
X17523738Y-10614167D01*
X17542786Y-10623690D01*
X17552310Y-10633214D01*
X17561833Y-10652262D01*
X17561833Y-10699881D01*
X17552310Y-10718929D01*
X17542786Y-10728452D01*
X17523738Y-10737976D01*
X17466595Y-10737976D01*
X17447548Y-10728452D01*
X17438024Y-10718929D01*
X17742786Y-10537976D02*
X17647548Y-10537976D01*
X17638024Y-10633214D01*
X17647548Y-10623690D01*
X17666595Y-10614167D01*
X17714214Y-10614167D01*
X17733262Y-10623690D01*
X17742786Y-10633214D01*
X17752310Y-10652262D01*
X17752310Y-10699881D01*
X17742786Y-10718929D01*
X17733262Y-10728452D01*
X17714214Y-10737976D01*
X17666595Y-10737976D01*
X17647548Y-10728452D01*
X17638024Y-10718929D01*
X17923738Y-10604643D02*
X17923738Y-10737976D01*
X17876119Y-10528452D02*
X17828500Y-10671310D01*
X17952310Y-10671310D01*
X18018976Y-10537976D02*
X18018976Y-10576071D01*
X18095167Y-10537976D02*
X18095167Y-10576071D01*
X18390405Y-10814167D02*
X18380881Y-10804643D01*
X18361833Y-10776071D01*
X18352310Y-10757024D01*
X18342786Y-10728452D01*
X18333262Y-10680833D01*
X18333262Y-10642738D01*
X18342786Y-10595119D01*
X18352310Y-10566548D01*
X18361833Y-10547500D01*
X18380881Y-10518929D01*
X18390405Y-10509405D01*
X18571357Y-10737976D02*
X18457071Y-10737976D01*
X18514214Y-10737976D02*
X18514214Y-10537976D01*
X18495167Y-10566548D01*
X18476119Y-10585595D01*
X18457071Y-10595119D01*
X18695167Y-10537976D02*
X18714214Y-10537976D01*
X18733262Y-10547500D01*
X18742786Y-10557024D01*
X18752310Y-10576071D01*
X18761833Y-10614167D01*
X18761833Y-10661786D01*
X18752310Y-10699881D01*
X18742786Y-10718929D01*
X18733262Y-10728452D01*
X18714214Y-10737976D01*
X18695167Y-10737976D01*
X18676119Y-10728452D01*
X18666595Y-10718929D01*
X18657071Y-10699881D01*
X18647548Y-10661786D01*
X18647548Y-10614167D01*
X18657071Y-10576071D01*
X18666595Y-10557024D01*
X18676119Y-10547500D01*
X18695167Y-10537976D01*
X18999929Y-10737976D02*
X18999929Y-10537976D01*
X19085643Y-10737976D02*
X19085643Y-10633214D01*
X19076119Y-10614167D01*
X19057071Y-10604643D01*
X19028500Y-10604643D01*
X19009452Y-10614167D01*
X18999929Y-10623690D01*
X19209452Y-10737976D02*
X19190405Y-10728452D01*
X19180881Y-10718929D01*
X19171357Y-10699881D01*
X19171357Y-10642738D01*
X19180881Y-10623690D01*
X19190405Y-10614167D01*
X19209452Y-10604643D01*
X19238024Y-10604643D01*
X19257071Y-10614167D01*
X19266595Y-10623690D01*
X19276119Y-10642738D01*
X19276119Y-10699881D01*
X19266595Y-10718929D01*
X19257071Y-10728452D01*
X19238024Y-10737976D01*
X19209452Y-10737976D01*
X19390405Y-10737976D02*
X19371357Y-10728452D01*
X19361833Y-10709405D01*
X19361833Y-10537976D01*
X19542786Y-10728452D02*
X19523738Y-10737976D01*
X19485643Y-10737976D01*
X19466595Y-10728452D01*
X19457071Y-10709405D01*
X19457071Y-10633214D01*
X19466595Y-10614167D01*
X19485643Y-10604643D01*
X19523738Y-10604643D01*
X19542786Y-10614167D01*
X19552310Y-10633214D01*
X19552310Y-10652262D01*
X19457071Y-10671310D01*
X19628500Y-10728452D02*
X19647548Y-10737976D01*
X19685643Y-10737976D01*
X19704690Y-10728452D01*
X19714214Y-10709405D01*
X19714214Y-10699881D01*
X19704690Y-10680833D01*
X19685643Y-10671310D01*
X19657071Y-10671310D01*
X19638024Y-10661786D01*
X19628500Y-10642738D01*
X19628500Y-10633214D01*
X19638024Y-10614167D01*
X19657071Y-10604643D01*
X19685643Y-10604643D01*
X19704690Y-10614167D01*
X19780881Y-10814167D02*
X19790405Y-10804643D01*
X19809452Y-10776071D01*
X19818976Y-10757024D01*
X19828500Y-10728452D01*
X19838024Y-10680833D01*
X19838024Y-10642738D01*
X19828500Y-10595119D01*
X19818976Y-10566548D01*
X19809452Y-10547500D01*
X19790405Y-10518929D01*
X19780881Y-10509405D01*
D13*
X14818500Y-10911500D02*
G75*
G03*
X14818500Y-10911500I-50000J0D01*
G01*
D11*
X15180881Y-11001976D02*
X15066595Y-11001976D01*
X15123738Y-11001976D02*
X15123738Y-10801976D01*
X15104690Y-10830548D01*
X15085643Y-10849595D01*
X15066595Y-10859119D01*
X15266595Y-10982929D02*
X15276119Y-10992452D01*
X15266595Y-11001976D01*
X15257071Y-10992452D01*
X15266595Y-10982929D01*
X15266595Y-11001976D01*
X15399928Y-10801976D02*
X15418976Y-10801976D01*
X15438024Y-10811500D01*
X15447548Y-10821024D01*
X15457071Y-10840071D01*
X15466595Y-10878167D01*
X15466595Y-10925786D01*
X15457071Y-10963881D01*
X15447548Y-10982929D01*
X15438024Y-10992452D01*
X15418976Y-11001976D01*
X15399928Y-11001976D01*
X15380881Y-10992452D01*
X15371357Y-10982929D01*
X15361833Y-10963881D01*
X15352309Y-10925786D01*
X15352309Y-10878167D01*
X15361833Y-10840071D01*
X15371357Y-10821024D01*
X15380881Y-10811500D01*
X15399928Y-10801976D01*
X15590405Y-10801976D02*
X15609452Y-10801976D01*
X15628500Y-10811500D01*
X15638024Y-10821024D01*
X15647548Y-10840071D01*
X15657071Y-10878167D01*
X15657071Y-10925786D01*
X15647548Y-10963881D01*
X15638024Y-10982929D01*
X15628500Y-10992452D01*
X15609452Y-11001976D01*
X15590405Y-11001976D01*
X15571357Y-10992452D01*
X15561833Y-10982929D01*
X15552309Y-10963881D01*
X15542786Y-10925786D01*
X15542786Y-10878167D01*
X15552309Y-10840071D01*
X15561833Y-10821024D01*
X15571357Y-10811500D01*
X15590405Y-10801976D01*
X15780881Y-10801976D02*
X15799928Y-10801976D01*
X15818976Y-10811500D01*
X15828500Y-10821024D01*
X15838024Y-10840071D01*
X15847548Y-10878167D01*
X15847548Y-10925786D01*
X15838024Y-10963881D01*
X15828500Y-10982929D01*
X15818976Y-10992452D01*
X15799928Y-11001976D01*
X15780881Y-11001976D01*
X15761833Y-10992452D01*
X15752309Y-10982929D01*
X15742786Y-10963881D01*
X15733262Y-10925786D01*
X15733262Y-10878167D01*
X15742786Y-10840071D01*
X15752309Y-10821024D01*
X15761833Y-10811500D01*
X15780881Y-10801976D01*
X15933262Y-11001976D02*
X15933262Y-10868643D01*
X15933262Y-10887690D02*
X15942786Y-10878167D01*
X15961833Y-10868643D01*
X15990405Y-10868643D01*
X16009452Y-10878167D01*
X16018976Y-10897214D01*
X16018976Y-11001976D01*
X16018976Y-10897214D02*
X16028500Y-10878167D01*
X16047548Y-10868643D01*
X16076119Y-10868643D01*
X16095167Y-10878167D01*
X16104690Y-10897214D01*
X16104690Y-11001976D01*
X16199928Y-11001976D02*
X16199928Y-10868643D01*
X16199928Y-10887690D02*
X16209452Y-10878167D01*
X16228500Y-10868643D01*
X16257071Y-10868643D01*
X16276119Y-10878167D01*
X16285643Y-10897214D01*
X16285643Y-11001976D01*
X16285643Y-10897214D02*
X16295167Y-10878167D01*
X16314214Y-10868643D01*
X16342786Y-10868643D01*
X16361833Y-10878167D01*
X16371357Y-10897214D01*
X16371357Y-11001976D01*
X16761833Y-10792452D02*
X16590405Y-11049595D01*
X17018976Y-10801976D02*
X17038024Y-10801976D01*
X17057071Y-10811500D01*
X17066595Y-10821024D01*
X17076119Y-10840071D01*
X17085643Y-10878167D01*
X17085643Y-10925786D01*
X17076119Y-10963881D01*
X17066595Y-10982929D01*
X17057071Y-10992452D01*
X17038024Y-11001976D01*
X17018976Y-11001976D01*
X16999929Y-10992452D01*
X16990405Y-10982929D01*
X16980881Y-10963881D01*
X16971357Y-10925786D01*
X16971357Y-10878167D01*
X16980881Y-10840071D01*
X16990405Y-10821024D01*
X16999929Y-10811500D01*
X17018976Y-10801976D01*
X17171357Y-10982929D02*
X17180881Y-10992452D01*
X17171357Y-11001976D01*
X17161833Y-10992452D01*
X17171357Y-10982929D01*
X17171357Y-11001976D01*
X17304690Y-10801976D02*
X17323738Y-10801976D01*
X17342786Y-10811500D01*
X17352310Y-10821024D01*
X17361833Y-10840071D01*
X17371357Y-10878167D01*
X17371357Y-10925786D01*
X17361833Y-10963881D01*
X17352310Y-10982929D01*
X17342786Y-10992452D01*
X17323738Y-11001976D01*
X17304690Y-11001976D01*
X17285643Y-10992452D01*
X17276119Y-10982929D01*
X17266595Y-10963881D01*
X17257071Y-10925786D01*
X17257071Y-10878167D01*
X17266595Y-10840071D01*
X17276119Y-10821024D01*
X17285643Y-10811500D01*
X17304690Y-10801976D01*
X17438024Y-10801976D02*
X17561833Y-10801976D01*
X17495167Y-10878167D01*
X17523738Y-10878167D01*
X17542786Y-10887690D01*
X17552310Y-10897214D01*
X17561833Y-10916262D01*
X17561833Y-10963881D01*
X17552310Y-10982929D01*
X17542786Y-10992452D01*
X17523738Y-11001976D01*
X17466595Y-11001976D01*
X17447548Y-10992452D01*
X17438024Y-10982929D01*
X17657071Y-11001976D02*
X17695167Y-11001976D01*
X17714214Y-10992452D01*
X17723738Y-10982929D01*
X17742786Y-10954357D01*
X17752310Y-10916262D01*
X17752310Y-10840071D01*
X17742786Y-10821024D01*
X17733262Y-10811500D01*
X17714214Y-10801976D01*
X17676119Y-10801976D01*
X17657071Y-10811500D01*
X17647548Y-10821024D01*
X17638024Y-10840071D01*
X17638024Y-10887690D01*
X17647548Y-10906738D01*
X17657071Y-10916262D01*
X17676119Y-10925786D01*
X17714214Y-10925786D01*
X17733262Y-10916262D01*
X17742786Y-10906738D01*
X17752310Y-10887690D01*
X17923738Y-10868643D02*
X17923738Y-11001976D01*
X17876119Y-10792452D02*
X17828500Y-10935310D01*
X17952310Y-10935310D01*
X18018976Y-10801976D02*
X18018976Y-10840071D01*
X18095167Y-10801976D02*
X18095167Y-10840071D01*
X18390405Y-11078167D02*
X18380881Y-11068643D01*
X18361833Y-11040071D01*
X18352310Y-11021024D01*
X18342786Y-10992452D01*
X18333262Y-10944833D01*
X18333262Y-10906738D01*
X18342786Y-10859119D01*
X18352310Y-10830548D01*
X18361833Y-10811500D01*
X18380881Y-10782929D01*
X18390405Y-10773405D01*
X18552310Y-10801976D02*
X18514214Y-10801976D01*
X18495167Y-10811500D01*
X18485643Y-10821024D01*
X18466595Y-10849595D01*
X18457071Y-10887690D01*
X18457071Y-10963881D01*
X18466595Y-10982929D01*
X18476119Y-10992452D01*
X18495167Y-11001976D01*
X18533262Y-11001976D01*
X18552310Y-10992452D01*
X18561833Y-10982929D01*
X18571357Y-10963881D01*
X18571357Y-10916262D01*
X18561833Y-10897214D01*
X18552310Y-10887690D01*
X18533262Y-10878167D01*
X18495167Y-10878167D01*
X18476119Y-10887690D01*
X18466595Y-10897214D01*
X18457071Y-10916262D01*
X18809452Y-11001976D02*
X18809452Y-10801976D01*
X18895167Y-11001976D02*
X18895167Y-10897214D01*
X18885643Y-10878167D01*
X18866595Y-10868643D01*
X18838024Y-10868643D01*
X18818976Y-10878167D01*
X18809452Y-10887690D01*
X19018976Y-11001976D02*
X18999929Y-10992452D01*
X18990405Y-10982929D01*
X18980881Y-10963881D01*
X18980881Y-10906738D01*
X18990405Y-10887690D01*
X18999929Y-10878167D01*
X19018976Y-10868643D01*
X19047548Y-10868643D01*
X19066595Y-10878167D01*
X19076119Y-10887690D01*
X19085643Y-10906738D01*
X19085643Y-10963881D01*
X19076119Y-10982929D01*
X19066595Y-10992452D01*
X19047548Y-11001976D01*
X19018976Y-11001976D01*
X19199929Y-11001976D02*
X19180881Y-10992452D01*
X19171357Y-10973405D01*
X19171357Y-10801976D01*
X19352310Y-10992452D02*
X19333262Y-11001976D01*
X19295167Y-11001976D01*
X19276119Y-10992452D01*
X19266595Y-10973405D01*
X19266595Y-10897214D01*
X19276119Y-10878167D01*
X19295167Y-10868643D01*
X19333262Y-10868643D01*
X19352310Y-10878167D01*
X19361833Y-10897214D01*
X19361833Y-10916262D01*
X19266595Y-10935310D01*
X19438024Y-10992452D02*
X19457071Y-11001976D01*
X19495167Y-11001976D01*
X19514214Y-10992452D01*
X19523738Y-10973405D01*
X19523738Y-10963881D01*
X19514214Y-10944833D01*
X19495167Y-10935310D01*
X19466595Y-10935310D01*
X19447548Y-10925786D01*
X19438024Y-10906738D01*
X19438024Y-10897214D01*
X19447548Y-10878167D01*
X19466595Y-10868643D01*
X19495167Y-10868643D01*
X19514214Y-10878167D01*
X19590405Y-11078167D02*
X19599929Y-11068643D01*
X19618976Y-11040071D01*
X19628500Y-11021024D01*
X19638024Y-10992452D01*
X19647548Y-10944833D01*
X19647548Y-10906738D01*
X19638024Y-10859119D01*
X19628500Y-10830548D01*
X19618976Y-10811500D01*
X19599929Y-10782929D01*
X19590405Y-10773405D01*
M02*
