%TF.GenerationSoftware,KiCad,Pcbnew,(6.0.10)*%
%TF.CreationDate,2023-01-30T00:45:51+02:00*%
%TF.ProjectId,LEDs Shield,4c454473-2053-4686-9965-6c642e6b6963,rev?*%
%TF.SameCoordinates,Original*%
%TF.FileFunction,AssemblyDrawing,Top*%
%FSLAX46Y46*%
G04 Gerber Fmt 4.6, Leading zero omitted, Abs format (unit mm)*
G04 Created by KiCad (PCBNEW (6.0.10)) date 2023-01-30 00:45:51*
%MOMM*%
%LPD*%
G01*
G04 APERTURE LIST*
%ADD10C,0.100000*%
G04 APERTURE END LIST*
D10*
%TO.C,D5*%
X164031190Y-90875000D02*
X161698810Y-90875000D01*
X161699524Y-90874445D02*
G75*
G03*
X164031190Y-90875000I1165476J-1500555D01*
G01*
X164365000Y-92375000D02*
G75*
G03*
X164365000Y-92375000I-1500000J0D01*
G01*
%TO.C,D4*%
X161380000Y-87295000D02*
G75*
G03*
X161380000Y-87295000I-1500000J0D01*
G01*
X158714524Y-85794445D02*
G75*
G03*
X161046190Y-85795000I1165476J-1500555D01*
G01*
X161046190Y-85795000D02*
X158713810Y-85795000D01*
%TO.C,D3*%
X158316190Y-90875000D02*
X155983810Y-90875000D01*
X155984524Y-90874445D02*
G75*
G03*
X158316190Y-90875000I1165476J-1500555D01*
G01*
X158650000Y-92375000D02*
G75*
G03*
X158650000Y-92375000I-1500000J0D01*
G01*
%TO.C,D2*%
X154840000Y-87295000D02*
G75*
G03*
X154840000Y-87295000I-1500000J0D01*
G01*
X152174524Y-85794445D02*
G75*
G03*
X154506190Y-85795000I1165476J-1500555D01*
G01*
X154506190Y-85795000D02*
X152173810Y-85795000D01*
%TO.C,D1*%
X151966190Y-90880000D02*
X149633810Y-90880000D01*
X149634524Y-90879445D02*
G75*
G03*
X151966190Y-90880000I1165476J-1500555D01*
G01*
X152300000Y-92380000D02*
G75*
G03*
X152300000Y-92380000I-1500000J0D01*
G01*
%TO.C,J3*%
X164770000Y-96190000D02*
X164770000Y-98730000D01*
X149530000Y-96825000D02*
X150165000Y-96190000D01*
X149530000Y-98730000D02*
X149530000Y-96825000D01*
X164770000Y-98730000D02*
X149530000Y-98730000D01*
X150165000Y-96190000D02*
X164770000Y-96190000D01*
%TD*%
M02*
