%TF.GenerationSoftware,KiCad,Pcbnew,(6.0.10)*%
%TF.CreationDate,2023-01-30T00:45:51+02:00*%
%TF.ProjectId,LEDs Shield,4c454473-2053-4686-9965-6c642e6b6963,rev?*%
%TF.SameCoordinates,Original*%
%TF.FileFunction,AssemblyDrawing,Bot*%
%FSLAX46Y46*%
G04 Gerber Fmt 4.6, Leading zero omitted, Abs format (unit mm)*
G04 Created by KiCad (PCBNEW (6.0.10)) date 2023-01-30 00:45:51*
%MOMM*%
%LPD*%
G01*
G04 APERTURE LIST*
%ADD10C,0.060000*%
%ADD11C,0.100000*%
G04 APERTURE END LIST*
D10*
%TO.C,R4*%
X160505952Y-93583333D02*
X160315476Y-93450000D01*
X160505952Y-93354761D02*
X160105952Y-93354761D01*
X160105952Y-93507142D01*
X160125000Y-93545238D01*
X160144047Y-93564285D01*
X160182142Y-93583333D01*
X160239285Y-93583333D01*
X160277380Y-93564285D01*
X160296428Y-93545238D01*
X160315476Y-93507142D01*
X160315476Y-93354761D01*
X160239285Y-93926190D02*
X160505952Y-93926190D01*
X160086904Y-93830952D02*
X160372619Y-93735714D01*
X160372619Y-93983333D01*
%TO.C,R2*%
X154155952Y-93583333D02*
X153965476Y-93450000D01*
X154155952Y-93354761D02*
X153755952Y-93354761D01*
X153755952Y-93507142D01*
X153775000Y-93545238D01*
X153794047Y-93564285D01*
X153832142Y-93583333D01*
X153889285Y-93583333D01*
X153927380Y-93564285D01*
X153946428Y-93545238D01*
X153965476Y-93507142D01*
X153965476Y-93354761D01*
X153794047Y-93735714D02*
X153775000Y-93754761D01*
X153755952Y-93792857D01*
X153755952Y-93888095D01*
X153775000Y-93926190D01*
X153794047Y-93945238D01*
X153832142Y-93964285D01*
X153870238Y-93964285D01*
X153927380Y-93945238D01*
X154155952Y-93716666D01*
X154155952Y-93964285D01*
%TO.C,R5*%
X163680952Y-87868333D02*
X163490476Y-87735000D01*
X163680952Y-87639761D02*
X163280952Y-87639761D01*
X163280952Y-87792142D01*
X163300000Y-87830238D01*
X163319047Y-87849285D01*
X163357142Y-87868333D01*
X163414285Y-87868333D01*
X163452380Y-87849285D01*
X163471428Y-87830238D01*
X163490476Y-87792142D01*
X163490476Y-87639761D01*
X163280952Y-88230238D02*
X163280952Y-88039761D01*
X163471428Y-88020714D01*
X163452380Y-88039761D01*
X163433333Y-88077857D01*
X163433333Y-88173095D01*
X163452380Y-88211190D01*
X163471428Y-88230238D01*
X163509523Y-88249285D01*
X163604761Y-88249285D01*
X163642857Y-88230238D01*
X163661904Y-88211190D01*
X163680952Y-88173095D01*
X163680952Y-88077857D01*
X163661904Y-88039761D01*
X163642857Y-88020714D01*
%TO.C,R3*%
X156695952Y-87868333D02*
X156505476Y-87735000D01*
X156695952Y-87639761D02*
X156295952Y-87639761D01*
X156295952Y-87792142D01*
X156315000Y-87830238D01*
X156334047Y-87849285D01*
X156372142Y-87868333D01*
X156429285Y-87868333D01*
X156467380Y-87849285D01*
X156486428Y-87830238D01*
X156505476Y-87792142D01*
X156505476Y-87639761D01*
X156295952Y-88001666D02*
X156295952Y-88249285D01*
X156448333Y-88115952D01*
X156448333Y-88173095D01*
X156467380Y-88211190D01*
X156486428Y-88230238D01*
X156524523Y-88249285D01*
X156619761Y-88249285D01*
X156657857Y-88230238D01*
X156676904Y-88211190D01*
X156695952Y-88173095D01*
X156695952Y-88058809D01*
X156676904Y-88020714D01*
X156657857Y-88001666D01*
%TO.C,R1*%
X150345952Y-87868333D02*
X150155476Y-87735000D01*
X150345952Y-87639761D02*
X149945952Y-87639761D01*
X149945952Y-87792142D01*
X149965000Y-87830238D01*
X149984047Y-87849285D01*
X150022142Y-87868333D01*
X150079285Y-87868333D01*
X150117380Y-87849285D01*
X150136428Y-87830238D01*
X150155476Y-87792142D01*
X150155476Y-87639761D01*
X150345952Y-88249285D02*
X150345952Y-88020714D01*
X150345952Y-88135000D02*
X149945952Y-88135000D01*
X150003095Y-88096904D01*
X150041190Y-88058809D01*
X150060238Y-88020714D01*
D11*
%TO.C,R4*%
X159912500Y-92850000D02*
X159912500Y-94450000D01*
X160737500Y-92850000D02*
X159912500Y-92850000D01*
X159912500Y-94450000D02*
X160737500Y-94450000D01*
X160737500Y-94450000D02*
X160737500Y-92850000D01*
%TO.C,R2*%
X153562500Y-92850000D02*
X153562500Y-94450000D01*
X154387500Y-92850000D02*
X153562500Y-92850000D01*
X153562500Y-94450000D02*
X154387500Y-94450000D01*
X154387500Y-94450000D02*
X154387500Y-92850000D01*
%TO.C,R5*%
X163912500Y-88735000D02*
X163912500Y-87135000D01*
X163087500Y-88735000D02*
X163912500Y-88735000D01*
X163912500Y-87135000D02*
X163087500Y-87135000D01*
X163087500Y-87135000D02*
X163087500Y-88735000D01*
%TO.C,R3*%
X156927500Y-88735000D02*
X156927500Y-87135000D01*
X156102500Y-88735000D02*
X156927500Y-88735000D01*
X156927500Y-87135000D02*
X156102500Y-87135000D01*
X156102500Y-87135000D02*
X156102500Y-88735000D01*
%TO.C,R1*%
X150577500Y-88735000D02*
X150577500Y-87135000D01*
X149752500Y-88735000D02*
X150577500Y-88735000D01*
X150577500Y-87135000D02*
X149752500Y-87135000D01*
X149752500Y-87135000D02*
X149752500Y-88735000D01*
%TD*%
M02*
